<svg width="926" height="526" viewBox="0 0 926 526" fill="none" xmlns="http://www.w3.org/2000/svg">
<path d="M1.88727 218.14C19.0139 216.77 32.55 206.975 46.7084 198.069C58.3966 190.717 72.0889 181.059 80.2793 169.719C92.6232 152.627 101.874 131.642 107.19 111.217C115.917 77.6885 116.537 43.4747 97.4697 12.7546C95.9484 10.3036 84.4821 -4.60446 82.9794 5.91442C80.8787 20.6189 78.0879 35.3545 74.7891 50.0156C69.0697 75.4353 71.5491 102.399 71.5491 128.318C71.5491 148.802 67.9319 172.373 75.1492 191.859C79.616 203.92 96.7411 213.28 108.81 213.28C119.575 213.28 137.262 218.655 137.971 205.18C139.236 181.142 158.803 161.657 163.891 138.758C166.161 128.543 170.119 120.246 179.192 116.077C196.398 108.172 216.67 107.977 235.173 107.977C240.032 107.977 247.373 107.848 251.374 111.217C253.438 112.956 256.004 115.633 251.014 114.097C237.627 109.978 223.418 104.737 209.253 104.737C196.105 104.737 175.475 108.757 168.032 120.937C160.735 132.876 158.806 151.443 157.051 165.039C155.891 174.028 152.772 189.129 157.501 197.799C163.595 208.971 183.175 213.081 194.312 215.26C214.57 219.223 235.183 214.899 253.624 206.08C257.265 204.338 260.461 202.06 261.454 197.979C263.512 189.517 267.34 179.817 267.574 171.159C267.774 163.758 270.294 145.058 263.524 145.058C263.037 145.058 260.603 119.467 264.694 154.238C267.951 181.919 270.736 210.286 278.194 237.22C279.733 242.777 279.761 244.061 285.395 244.061C288.261 244.061 290.835 244.306 292.595 241.54C294.832 238.024 295.51 232.614 297.095 228.76C301.406 218.277 306.015 208.029 309.605 197.259C315.293 180.197 319.415 166.231 319.415 148.478C319.415 142.853 315.33 137.842 312.845 132.998C310.026 127.499 303.215 110.978 303.215 117.157C303.215 128.338 310.24 140.579 312.935 151.358C317.36 169.059 322.355 186.61 327.516 204.1C328.062 205.951 329.136 214.146 329.136 208.42C329.136 193.98 328.895 179.743 331.746 165.489C334.735 150.544 336.962 131.28 345.336 118.057C348.469 113.11 355.19 111.632 360.277 109.597C374.803 103.787 375.655 108.673 382.597 122.557C392.828 143.02 397.249 165.833 405.908 186.999C409.93 196.833 417.425 189.643 423.098 184.119C435.136 172.397 444.017 152.562 440.019 135.428C439.492 133.172 434.438 122.899 434.438 124.177C434.438 140.836 440.146 157.628 444.159 173.679C446.236 181.986 447.399 187.502 447.399 196.179C447.399 202.116 447.873 197.278 449.019 193.839C454.168 178.391 461.606 163.964 470.079 150.098C472.817 145.619 498.757 111.865 503.29 121.837C506.462 128.816 506.856 137.513 508.96 144.878C510.469 150.16 513.662 155.877 513.82 161.438C514.025 168.605 515.44 175.318 515.44 182.589C515.44 187.299 515.44 192.009 515.44 196.719C515.44 204.059 517.023 182.089 518.681 174.939C524.251 150.904 527.833 118.166 546.941 99.9668C574.815 73.4206 579.851 140.987 582.672 155.408C584.854 166.558 584.54 179.961 588.702 190.599C589.405 192.396 591.725 196.058 593.562 196.719C602.359 199.886 621.032 198.759 626.593 190.779C632.853 181.798 635.138 170.525 638.204 160.178C639.761 154.922 637.762 148.992 638.924 143.618C643.103 124.29 659.46 110.376 678.885 106.357C684.888 105.115 694.35 102.382 699.315 107.347C700.683 108.715 704.551 116.75 703.365 115.267C699.966 111.018 694.299 106.598 690.045 103.117C682.279 96.7631 666.733 94.0254 658.544 101.677C650.219 109.456 644.259 122.974 639.644 132.998C631.647 150.366 625.483 169.557 622.723 188.529C621.22 198.867 622.316 210.445 624.883 220.48C627.307 229.954 631.787 237.236 641.084 241.18C658.123 248.409 686.372 249.215 703.005 240.46C728.515 227.034 733.444 191.257 724.336 166.209C721.969 159.7 713.467 148.864 713.086 141.998C712.59 133.081 713.743 149.456 714.076 151.268C718.05 172.907 722.488 195.198 729.196 216.16C731.655 223.845 731.287 228.1 738.196 231.82C747.994 237.096 767.851 230.367 774.917 223.9C797.852 202.909 791.043 154.025 781.127 127.778C779.84 124.369 777.887 113.693 777.887 117.337C777.887 131.948 777.887 146.558 777.887 161.168C777.887 178.848 785.02 187.201 801.828 195.999C824.387 207.809 850.577 210.787 875.63 211.57C883.284 211.809 888.194 211.598 889.67 203.02C891.566 192.008 891.29 180.492 891.29 169.359C891.29 159.305 891.97 148.944 890.93 138.938C890.862 138.284 889.13 130.875 888.86 131.738C885.267 143.236 888.135 160.131 888.41 171.699C888.982 195.772 889.793 219.845 891.29 243.881C894.171 290.138 892.153 336.026 889.22 382.304C887.8 404.719 885.601 441.157 881.39 465.106C878.207 483.208 871.303 490.008 855.649 498.947C835.943 510.2 808.114 524.942 784.457 523.788C753.513 522.278 748.746 494.005 743.686 468.706C737.997 440.26 738.724 409.734 763.127 389.864C781.664 374.771 805.507 366.044 827.209 356.743C852.353 345.967 878.161 335.792 901.37 321.103C910.113 315.569 923.691 304.562 923.691 292.662" stroke="black" stroke-width="3" stroke-linecap="round"/>
</svg>
